<svg width="1000" height="1000" viewBox="0 0 1000 1000" fill="none" xmlns="http://www.w3.org/2000/svg">
<path d="M815 455C839.853 455 860 475.147 860 500V590C860 664.558 799.558 725 725 725H635C610.148 724.999 590 704.852 590 680C590 655.148 610.148 635.001 635 635H725C749.853 635 770 614.853 770 590V500C770 475.148 790.148 455.001 815 455Z" fill="url(#paint0_linear_294_386)"/>
<path d="M635 455C659.853 455 680 475.147 680 500C680 524.853 659.853 545 635 545C610.148 544.999 590 524.852 590 500C590 475.148 610.148 455.001 635 455Z" fill="#FD5901"/>
<path d="M365 455C389.853 455 410 475.147 410 500C410 524.853 389.853 545 365 545C340.147 545 320 524.853 320 500C320 475.147 340.147 455 365 455Z" fill="#5C61EF"/>
<path d="M365 275C389.853 275 410 295.147 410 320C410 344.853 389.853 365 365 365H275C250.147 365 230 385.147 230 410V500C230 524.853 209.853 545 185 545C160.147 545 140 524.853 140 500V410C140 335.442 200.442 275 275 275H365Z" fill="url(#paint1_linear_294_386)"/>
<defs>
<linearGradient id="paint0_linear_294_386" x1="810.743" y1="464.907" x2="590.089" y2="675.839" gradientUnits="userSpaceOnUse">
<stop stop-color="#FF3C00"/>
<stop offset="1" stop-color="#FFB800"/>
</linearGradient>
<linearGradient id="paint1_linear_294_386" x1="410.13" y1="313.207" x2="180.659" y2="520.07" gradientUnits="userSpaceOnUse">
<stop stop-color="#525BFD"/>
<stop offset="1" stop-color="#00FFE5"/>
</linearGradient>
</defs>
</svg>
